<?xml version="1.0" encoding="UTF-8"?>
<svg version="1.1" xmlns="http://www.w3.org/2000/svg" width="1024" height="1024">
<path d="M0 0 C337.92 0 675.84 0 1024 0 C1024 337.92 1024 675.84 1024 1024 C686.08 1024 348.16 1024 0 1024 C0 686.08 0 348.16 0 0 Z " fill="#FAFEFE" transform="translate(0,0)"/>
<path d="M0 0 C5.09624207 4.46675701 9.07643935 9.43726368 11 16 C11.10059538 17.83246722 11.1825373 19.66601408 11.25 21.5 C11.55557546 25.37237869 11.95111804 27.69180947 14.625 30.5625 C16.03982059 31.76164672 17.50721424 32.89942706 19 34 C19.50337891 34.3801123 20.00675781 34.76022461 20.52539062 35.15185547 C42.7584593 51.72312697 68.16211667 56.78500869 95.56640625 53.53125 C114.68917501 50.68540986 133.35152473 40.64847527 147 27 C147.17641962 24.98418895 147.26754407 22.96051681 147.3125 20.9375 C147.84680816 12.73270016 150.317466 7.20502569 156.375 1.625 C161.38738868 -2.27232165 166.34304836 -4.58288147 172.828125 -4.28125 C181.73139799 -3.12830817 187.92303926 -0.14650109 193.50390625 6.8984375 C196.43232951 11.38701789 197.2050788 14.91685336 197.3125 20.25 C197.92347173 35.96555049 206.66238164 51.37250374 214 65 C214.53560547 66.01102783 214.53560547 66.01102783 215.08203125 67.04248047 C220.01064672 76.30975789 225.4080564 84.79440354 232 93 C232.7425 93.93457031 233.485 94.86914062 234.25 95.83203125 C238.66567395 101.31329319 243.26570933 106.59222317 248.01171875 111.7890625 C249.5960382 113.55080083 251.09390998 115.33088787 252.5625 117.1875 C255.09275945 120.10703013 257.78252322 122.52557901 260.7421875 124.99609375 C262.69308531 126.72759993 264.49827918 128.51151059 266.3203125 130.375 C269.67657789 133.75134408 273.18813865 136.7163435 277 139.5625 C277.66499512 140.06209229 278.32999023 140.56168457 279.01513672 141.07641602 C286.08043851 146.25864674 293.5591182 150.75025715 301.10546875 155.19165039 C315.48431288 163.69509509 315.48431288 163.69509509 317 169 C317.64421826 173.29478843 317.91774746 175.57920915 315.5390625 179.26171875 C312.24756001 183.12958138 310.06171028 185.59612945 304.82714844 186.28662109 C297.74427523 186.60755065 293.86267507 184.78381583 288.25 180.625 C287.08730591 179.8040686 287.08730591 179.8040686 285.90112305 178.96655273 C284.32796827 177.85225499 282.76166046 176.72822257 281.20263672 175.59423828 C279.24007895 174.17376585 277.2578615 172.79467886 275.25390625 171.43359375 C266.24627176 165.26398108 258.16779669 158.24314046 250 151 C249.67 163.54 249.34 176.08 249 189 C250.98 189.66 252.96 190.32 255 191 C256.59869981 191.7139355 258.18305536 192.46101564 259.75 193.2421875 C260.6059375 193.66886719 261.461875 194.09554687 262.34375 194.53515625 C263.2203125 194.97730469 264.096875 195.41945313 265 195.875 C265.8765625 196.30941406 266.753125 196.74382812 267.65625 197.19140625 C281.40496394 204.08646911 281.40496394 204.08646911 285 211 C285.65091495 214.90548972 285.3139448 216.48031058 283.2588501 219.88221741 C281.12437525 222.8283308 278.92969486 225.31779417 276.35839844 227.88452148 C275.44354675 228.8024498 274.52869507 229.72037811 273.58612061 230.66612244 C272.59404965 231.65129173 271.60179652 232.6362776 270.609375 233.62109375 C269.58013964 234.64913451 268.55127642 235.67754795 267.52276611 236.70631409 C265.37063492 238.85688613 263.21520403 241.00407462 261.05712891 243.14868164 C258.31092255 245.87795301 255.57128968 248.61370551 252.83391953 251.3518362 C250.70991129 253.47557045 248.58329061 255.59667265 246.45581818 257.71693611 C245.44588237 258.72372116 244.43652346 259.7310853 243.42778778 260.7390728 C237.78377664 266.3743205 232.05274102 271.80797705 226 277 C224.64279042 278.24355957 223.29263067 279.49497788 221.95703125 280.76171875 C220.94467407 281.71896851 220.94467407 281.71896851 219.91186523 282.69555664 C219.21907471 283.35289795 218.52628418 284.01023926 217.8125 284.6875 C216.32074238 286.09680934 214.82855042 287.50565905 213.3359375 288.9140625 C212.6047168 289.6040332 211.87349609 290.29400391 211.12011719 291.00488281 C203.53806385 298.13990583 195.91308871 305.23184537 188 312 C187.04867188 312.81855469 186.09734375 313.63710938 185.1171875 314.48046875 C178.31847356 320.3013784 171.38258191 325.91376847 164.31640625 331.40625 C160.45108416 334.41348178 156.66605751 337.51761143 152.890625 340.63671875 C151 342 151 342 149 342 C149 342.66 149 343.32 149 344 C147.0859375 345.375 147.0859375 345.375 144.375 347 C139.85013797 349.78898146 135.53442957 352.7394475 131.25 355.875 C121.3548944 363.03752057 110.86884203 369.0823685 100.125 374.875 C99.44783936 375.24439697 98.77067871 375.61379395 98.07299805 375.99438477 C87.43146415 381.62844325 78.79506737 383.60630163 67 380 C64.48607849 378.94007634 62.10648548 377.86312997 59.6875 376.625 C59.00872803 376.28049805 58.32995605 375.93599609 57.63061523 375.58105469 C36.94655088 364.82524745 17.97590349 350.75053682 0 336 C-0.98742187 335.195625 -1.97484375 334.39125 -2.9921875 333.5625 C-4.79672512 332.09024268 -6.59890801 330.61509328 -8.3984375 329.13671875 C-10.15036711 327.69782161 -11.90564938 326.26299794 -13.6640625 324.83203125 C-24.34122928 316.13952515 -34.8132699 307.26371502 -45 298 C-46.54163116 296.6249602 -48.08329889 295.24996139 -49.625 293.875 C-61.4153694 283.25071109 -72.84973447 272.29180628 -84 261 C-85.66535896 259.33202666 -87.33203682 257.66536915 -89 256 C-89.97925 255.02091668 -90.95841285 254.04174617 -91.9375 253.0625 C-92.44023437 252.55976562 -92.94296875 252.05703125 -93.4609375 251.5390625 C-95.76171875 249.23828125 -95.76171875 249.23828125 -98.0625 246.9375 C-98.56064209 246.44016357 -99.05878418 245.94282715 -99.57202148 245.43041992 C-100.85723653 244.14300756 -102.13422345 242.84739368 -103.41015625 241.55078125 C-105.42765627 239.56371109 -107.46768241 237.63803423 -109.55859375 235.73046875 C-110.19216797 235.15103516 -110.82574219 234.57160156 -111.47851562 233.97460938 C-112.77654611 232.79046392 -114.07859508 231.61070734 -115.38476562 230.43554688 C-126.21836356 220.48183507 -126.21836356 220.48183507 -127.6875 213.9375 C-126.47691653 208.76500699 -123.90548136 205.27594627 -119.54663086 202.35717773 C-116.6101582 200.7324702 -113.64015026 199.22339836 -110.625 197.75 C-109.60921875 197.234375 -108.5934375 196.71875 -107.546875 196.1875 C-102.41714537 193.60264923 -97.28954825 191.26694925 -92 189 C-92 176.79 -92 164.58 -92 152 C-94.083125 153.77375 -96.16625 155.5475 -98.3125 157.375 C-105.89671716 163.65672648 -113.9328524 169.18084517 -122.125 174.625 C-122.71681061 175.01967468 -123.30862122 175.41434937 -123.91836548 175.82098389 C-141.94413787 187.81402916 -141.94413787 187.81402916 -151 186 C-154.427663 183.97681264 -157.20800495 181.5839901 -159 178 C-159.17341267 176.23460219 -159.2669075 174.46080841 -159.3125 172.6875 C-159.34988281 171.74261719 -159.38726562 170.79773438 -159.42578125 169.82421875 C-158.8602845 166.07326321 -157.6940721 164.66399474 -155 162 C-152.59382523 160.34265765 -150.06414049 158.9589749 -147.5 157.5625 C-127.3361157 146.10999404 -109.98063774 132.07839683 -93.5625 115.8125 C-92.72138672 114.98089355 -91.88027344 114.14928711 -91.01367188 113.29248047 C-85.89369246 108.14491936 -81.33104652 102.82074673 -77 97 C-75.86902863 95.5321366 -74.73751502 94.06469083 -73.60546875 92.59765625 C-56.86428451 70.53072054 -39.70929892 42.77121814 -37.65234375 14.59375 C-36.49506605 8.21832793 -32.14109349 2.86436961 -27 -1 C-17.85464982 -5.53025695 -8.75140696 -5.18704628 0 0 Z " fill="#213945" transform="translate(431,390)"/>
<path d="M0 0 C0.9796875 0.78503906 1.959375 1.57007813 2.96875 2.37890625 C8.88810115 7.15136012 14.20099251 12.07756074 19 18 C20.14265085 19.33606169 21.28833938 20.66953329 22.4375 22 C23.283125 22.99 24.12875 23.98 25 25 C27.93471562 22.15421516 30.66758968 19.24308235 33.3125 16.125 C36.29060289 12.69021179 39.44988904 9.70209742 42.921875 6.7734375 C44.31623569 5.58351315 45.68123586 4.35837088 47.015625 3.1015625 C74.66982595 -22.81144802 112.13519712 -30.98926567 148.90673828 -30.11865234 C171.08808229 -29.2678131 194.20453711 -20.49666361 213 -9 C214.05703125 -8.36578125 215.1140625 -7.7315625 216.203125 -7.078125 C239.89726764 7.93230044 257.79317882 29.06043129 271.83251953 53.02294922 C272.77876226 54.62534856 273.75761748 56.20845919 274.74609375 57.78515625 C286.91928858 78.0738143 293.01053089 105.42288979 293.23828125 128.94140625 C293.2480751 129.77823441 293.25786896 130.61506256 293.26795959 131.47724915 C293.50181667 156.63121888 291.5882928 179.18586953 283 203 C282.70657715 203.82000488 282.4131543 204.64000977 282.11083984 205.48486328 C281.21679263 207.9553451 280.30213272 210.41675808 279.375 212.875 C278.95963989 213.99032104 278.95963989 213.99032104 278.53588867 215.12817383 C276.92326911 219.26066058 275.41728071 223.03835672 272 226 C265.68119253 226.25087077 260.73622211 223.0561729 255.375 220 C254.49344238 219.5052417 253.61188477 219.0104834 252.70361328 218.50073242 C237.66454748 209.94525437 224.25547688 199.64877228 212.0625 187.375 C211.18932129 186.49763184 210.31614258 185.62026367 209.41650391 184.71630859 C203.1728509 178.36342362 197.40976415 171.86067634 192.19140625 164.64453125 C190.96023399 162.94510987 189.7008703 161.2693378 188.4375 159.59375 C182.14747386 151.15014498 176.88316446 142.31785541 172 133 C171.52288574 132.11038574 171.04577148 131.22077148 170.55419922 130.30419922 C164.70364123 119.30470116 160.02639727 110.03198959 160.078125 97.44921875 C159.85699311 87.68624562 154.52264721 78.80042976 147.96484375 71.83984375 C138.37789786 62.79396006 128.9700912 59.46250449 115.9609375 59.7265625 C104.86083408 60.49284183 96.55038337 65.07518601 89.03125 73.1015625 C83.85381246 79.31009989 80.16066287 86.15294489 79.5625 94.3125 C79.01730168 97.88657784 78.5584302 99.4149236 75.796875 101.7265625 C74.90742187 102.35691406 74.90742187 102.35691406 74 103 C73.24203125 103.54398438 72.4840625 104.08796875 71.703125 104.6484375 C54.43602219 115.81839949 30.7637539 120.02312676 10.5625 116.25 C9.03477124 115.85937233 7.51388833 115.44123379 6 115 C5.01386719 114.75507813 4.02773438 114.51015625 3.01171875 114.2578125 C-7.2425316 111.48241061 -18.30861587 106.49909952 -26 99 C-26.96875 96.1171875 -26.96875 96.1171875 -27.5 92.875 C-29.57566458 82.63429023 -33.49189481 74.38437661 -42 68 C-53.33728668 61.15710209 -63.50872392 58.28773088 -76.82421875 60.4609375 C-83.01064396 62.1119458 -87.98749041 65.06494574 -93 69 C-93.61746094 69.47953125 -94.23492187 69.9590625 -94.87109375 70.453125 C-100.99454368 75.85376235 -106.77824988 85.78533798 -108 94 C-107.97679687 95.00546875 -107.95359375 96.0109375 -107.9296875 97.046875 C-107.58183828 120.60123623 -124.71409899 145.21493829 -139 163 C-140.10408203 164.39992188 -140.10408203 164.39992188 -141.23046875 165.828125 C-147.17617035 173.18607908 -153.50157568 180.13264844 -160 187 C-160.63808594 187.680625 -161.27617187 188.36125 -161.93359375 189.0625 C-174.7586777 202.3489179 -190.75336826 212.89721826 -206.8125 221.8125 C-207.76165283 222.34657471 -208.71080566 222.88064941 -209.6887207 223.4309082 C-211.02809692 224.15540161 -211.02809692 224.15540161 -212.39453125 224.89453125 C-213.18706299 225.32612549 -213.97959473 225.75771973 -214.79614258 226.20239258 C-217.38302752 227.13862312 -218.48776181 227.06932192 -221 226 C-225.06333033 221.06768021 -227.15239887 215.22604396 -229.4375 209.3125 C-229.83146973 208.29518799 -230.22543945 207.27787598 -230.63134766 206.22973633 C-233.00828834 199.95537683 -235.15129769 193.67262768 -236.875 187.1875 C-237.05345459 186.52210205 -237.23190918 185.8567041 -237.41577148 185.17114258 C-241.06078373 170.52009811 -242.52816458 156.18011045 -242.375 141.125 C-242.37001495 140.29416901 -242.36502991 139.46333801 -242.3598938 138.60733032 C-242.19418938 114.99827507 -239.34249622 90.28326372 -228.10668945 69.09960938 C-226.8699237 66.82307075 -226.8699237 66.82307075 -225.5625 63.625 C-216.23571701 41.98686346 -199.91527247 17.42741051 -180 4 C-179.34 4 -178.68 4 -178 4 C-178 3.34 -178 2.68 -178 2 C-176.64916992 0.83007812 -176.64916992 0.83007812 -174.73046875 -0.46875 C-173.65974121 -1.1944519 -173.65974121 -1.1944519 -172.56738281 -1.93481445 C-120.06274662 -36.46571542 -50.77366286 -42.51424853 0 0 Z " fill="#EE493A" transform="translate(484,310)"/>
<path d="M0 0 C1.26074844 0.00102722 1.26074844 0.00102722 2.54696655 0.0020752 C18.83898447 0.04591969 34.81485859 0.95317522 50.9284668 3.40673828 C53.23693333 3.75751143 55.54697069 4.09616379 57.85742188 4.43359375 C59.33083221 4.6529548 60.80414386 4.87298002 62.27734375 5.09375 C62.96569809 5.19482056 63.65405243 5.29589111 64.36326599 5.40002441 C69.1342791 6.1342791 69.1342791 6.1342791 70.25 7.25 C70.3828688 9.14419197 70.44582821 11.04330578 70.48223877 12.94180298 C70.50792435 14.17835632 70.53360992 15.41490967 70.56007385 16.68893433 C70.583525 18.07207945 70.60678828 19.45522778 70.62988281 20.83837891 C70.65745216 22.28528364 70.6853061 23.73218298 70.71342468 25.17907715 C70.96266551 38.40502267 71.13677505 51.63252485 71.29321671 64.85985756 C71.40988262 74.63960648 71.56234644 84.41742385 71.7615273 94.19584715 C71.89837457 101.06866111 71.99290652 107.94129721 72.05661082 114.81517351 C72.09590688 118.92172948 72.1541348 123.02599506 72.25839996 127.13145828 C72.35582013 130.99790844 72.40076114 134.86148643 72.40607643 138.72912598 C72.41709628 140.14552084 72.44694372 141.56191815 72.49734306 142.97745895 C72.64426463 147.28419584 72.60401962 151.13995804 71.25 155.25 C67.95041592 158.4788057 64.39699516 160.30320444 60.25 162.25 C59.02274166 163.06639783 57.81502817 163.91393183 56.640625 164.8046875 C45.73584293 172.86120559 34.30280872 179.69402305 22.375 186.125 C21.69783936 186.49439697 21.02067871 186.86379395 20.32299805 187.24438477 C9.68146415 192.87844325 1.04506737 194.85630163 -10.75 191.25 C-13.26392151 190.19007634 -15.64351452 189.11312997 -18.0625 187.875 C-18.74127197 187.53049805 -19.42004395 187.18599609 -20.11938477 186.83105469 C-35.0956633 179.04332195 -49.2424203 169.34548058 -62.75 159.25 C-63.60027362 158.68764774 -64.45054724 158.12529549 -65.32658672 157.54590225 C-67.75 155.25 -67.75 155.25 -68.36523914 152.44643784 C-68.36063018 151.35872211 -68.35602121 150.27100639 -68.35127258 149.15032959 C-68.3581459 147.89953613 -68.36501923 146.64874268 -68.37210083 145.36004639 C-68.35440624 143.97667857 -68.3362322 142.59331681 -68.31762695 141.20996094 C-68.31621638 139.75126189 -68.31700864 138.29255929 -68.31983948 136.8338623 C-68.32127472 132.87523683 -68.29186834 128.91736809 -68.25696969 124.95891857 C-68.22572374 120.82163004 -68.22277686 116.68432435 -68.21684265 112.54693604 C-68.20129897 104.71288987 -68.1602636 96.87919237 -68.1100952 89.04529977 C-68.05421791 80.12644172 -68.02671933 71.20756706 -68.00161803 62.28857756 C-67.94934805 43.94218732 -67.86139574 25.59612169 -67.75 7.25 C-64.72087482 6.60240558 -61.6909566 5.9585973 -58.66088867 5.31542969 C-57.8097625 5.1334201 -56.95863632 4.95141052 -56.08171844 4.7638855 C-49.43739779 3.35644565 -42.81906216 2.22323163 -36.0625 1.5 C-34.92458008 1.37786133 -33.78666016 1.25572266 -32.61425781 1.12988281 C-21.74831093 0.10717176 -10.9068212 -0.01265014 0 0 Z " fill="#EE4939" transform="translate(508.75,578.75)"/>
<path d="M0 0 C3.19040489 1.27616196 5.93960472 2.42766724 8.890625 4.05859375 C9.95603516 4.63770508 9.95603516 4.63770508 11.04296875 5.22851562 C12.50066283 6.02702238 13.95643819 6.82904305 15.41015625 7.63476562 C16.12558594 8.02212891 16.84101563 8.40949219 17.578125 8.80859375 C18.21137695 9.15720459 18.84462891 9.50581543 19.49707031 9.86499023 C23.20787862 11.54773973 27.13456733 12.71152244 31 14 C31 40.73 31 67.46 31 95 C8 98 8 98 0 98 C0 65.66 0 33.32 0 0 Z " fill="#FDFDFD" transform="translate(442,452)"/>
<path d="M0 0 C0 32.34 0 64.68 0 98 C-9 98 -9 98 -30 95 C-30 68.6 -30 42.2 -30 15 C-24.72 12.36 -19.44 9.72 -14 7 C-9.10858301 4.15909959 -9.10858301 4.15909959 -4.2578125 1.25 C-2 0 -2 0 0 0 Z " fill="#FCFDFD" transform="translate(579,452)"/>
<path d="M0 0 C0.84040833 0.00068481 1.68081665 0.00136963 2.54669189 0.0020752 C18.83880325 0.04591941 34.81476558 0.95316106 50.9284668 3.40673828 C53.23693333 3.75751143 55.54697069 4.09616379 57.85742188 4.43359375 C59.33083221 4.6529548 60.80414386 4.87298002 62.27734375 5.09375 C62.96569809 5.19482056 63.65405243 5.29589111 64.36326599 5.40002441 C69.1342791 6.1342791 69.1342791 6.1342791 70.25 7.25 C70.33651611 8.66570123 70.35704904 10.085595 70.34765625 11.50390625 C70.34443359 12.35791016 70.34121094 13.21191406 70.33789062 14.09179688 C70.32951172 14.98962891 70.32113281 15.88746094 70.3125 16.8125 C70.30798828 17.71419922 70.30347656 18.61589844 70.29882812 19.54492188 C70.28700225 21.78001314 70.2705222 24.01497437 70.25 26.25 C69.5787207 26.11424561 68.90744141 25.97849121 68.21582031 25.83862305 C25.18302809 17.24152396 -17.1309199 14.63727365 -60.14453125 24.48046875 C-63.75 25.25 -63.75 25.25 -66.75 25.25 C-66.75 19.31 -66.75 13.37 -66.75 7.25 C-44.64681227 1.72420307 -22.71691055 -0.02635801 0 0 Z " fill="#FAF9F9" transform="translate(508.75,578.75)"/>
<path d="M0 0 C9.57 0 19.14 0 29 0 C29 24.75 29 49.5 29 75 C19.43 75 9.86 75 0 75 C0 50.25 0 25.5 0 0 Z " fill="#F9FBFB" transform="translate(496,471)"/>
<path d="M0 0 C0.66 0 1.32 0 2 0 C2 27.06 2 54.12 2 82 C-19 88 -19 88 -28 90 C-28.17785722 82.5805251 -28.30022885 75.16160202 -28.38452148 67.74047852 C-28.41966882 65.21748308 -28.46739722 62.69462967 -28.52807617 60.17211914 C-28.6132391 56.54017067 -28.65274792 52.91011037 -28.68359375 49.27734375 C-28.71972275 48.15416245 -28.75585175 47.03098114 -28.79307556 45.87376404 C-28.79691893 38.16421699 -28.79691893 38.16421699 -26.49255371 34.79777527 C-24.74431527 33.04972308 -22.93090897 31.5392324 -21 30 C-19.10683684 27.88937293 -17.36415701 25.6760705 -15.625 23.4375 C-15.1623877 22.84614258 -14.69977539 22.25478516 -14.22314453 21.64550781 C-9.01226795 14.87725524 -3.82813134 7.65626269 0 0 Z " fill="#F9FBFB" transform="translate(391,480)"/>
<path d="M0 0 C0.66 0 1.32 0 2 0 C3.20166016 1.40185547 3.20166016 1.40185547 4.5390625 3.3671875 C5.03317627 4.08334229 5.52729004 4.79949707 6.03637695 5.53735352 C6.56062256 6.30877686 7.08486816 7.0802002 7.625 7.875 C14.90988432 18.84057074 14.90988432 18.84057074 23.70367432 28.54649353 C27.65749725 32.39287073 29.46718522 35.19854789 29.79467773 40.7734375 C29.7935805 42.97426957 29.7546769 45.17531589 29.68359375 47.375 C29.67368912 48.5400708 29.66378448 49.7051416 29.65357971 50.90551758 C29.61458055 54.60499105 29.52677577 58.30143243 29.4375 62 C29.40236789 64.51688406 29.37043224 67.03381489 29.34179688 69.55078125 C29.26486578 75.70154494 29.14791901 81.85055582 29 88 C28.44127197 87.82871582 27.88254395 87.65743164 27.30688477 87.48095703 C24.7264869 86.69211004 22.14451605 85.90853345 19.5625 85.125 C18.68400391 84.85558594 17.80550781 84.58617187 16.90039062 84.30859375 C16.02705078 84.04433594 15.15371094 83.78007813 14.25390625 83.5078125 C13.06776733 83.14647217 13.06776733 83.14647217 11.85766602 82.77783203 C7.94061243 81.71164385 3.96289459 80.88064324 0 80 C0 53.6 0 27.2 0 0 Z " fill="#F9FBFB" transform="translate(628,482)"/>
<path d="M0 0 C0.33 0 0.66 0 1 0 C1 5.94 1 11.88 1 18 C2.96453125 17.51080078 2.96453125 17.51080078 4.96875 17.01171875 C25.25577697 12.08971304 44.89841414 9.73221353 65.75 9.75 C66.51926819 9.75059418 67.28853638 9.75118835 68.08111572 9.75180054 C77.09203791 9.77842443 86.02967684 10.06694752 95 11 C95 11.33 95 11.66 95 12 C93.79351807 11.99476318 92.58703613 11.98952637 91.34399414 11.98413086 C86.88436622 11.96608389 82.42474154 11.95456911 77.96508789 11.94506836 C76.03181415 11.94002744 74.09854424 11.93319481 72.1652832 11.92456055 C69.39273128 11.91248435 66.62022959 11.90676943 63.84765625 11.90234375 C62.97786636 11.89718246 62.10807648 11.89202118 61.21192932 11.88670349 C59.14094186 11.88650815 57.07005676 11.93791832 55 12 C54.67 12.33 54.34 12.66 54 13 C51.03799688 13.21199227 48.09087558 13.37661226 45.125 13.5 C43.48160202 13.56900738 41.8383565 13.64177379 40.1953125 13.71875 C39.46328613 13.74904297 38.73125977 13.77933594 37.97705078 13.81054688 C35.78938816 13.94559746 35.78938816 13.94559746 33 15 C31.27204648 15.06802967 29.54164635 15.08495645 27.8125 15.0625 C26.91144531 15.05347656 26.01039063 15.04445313 25.08203125 15.03515625 C24.39496094 15.02355469 23.70789063 15.01195312 23 15 C23 15.66 23 16.32 23 17 C22.37351562 17.06058594 21.74703125 17.12117187 21.1015625 17.18359375 C19.87566406 17.30927734 19.87566406 17.30927734 18.625 17.4375 C17.81289063 17.51871094 17.00078125 17.59992187 16.1640625 17.68359375 C13.95727195 17.89090114 13.95727195 17.89090114 12 19 C8.37 19 4.74 19 1 19 C1 61.57 1 104.14 1 148 C0.67 148 0.34 148 0 148 C0 99.16 0 50.32 0 0 Z " fill="#B65A56" transform="translate(441,586)"/>
<path d="M0 0 C0.898396 0.12600586 1.79679199 0.25201172 2.72241211 0.38183594 C9.03827222 1.35884815 9.03827222 1.35884815 12.4375 3.625 C10.79175434 3.65188151 9.14588587 3.67134123 7.5 3.6875 C6.12521484 3.70490234 6.12521484 3.70490234 4.72265625 3.72265625 C2.4375 3.625 2.4375 3.625 1.4375 2.625 C-7.231384 1.07219732 -16.27980437 1.3427633 -25.0625 1.3125 C-25.81651093 1.30954926 -26.57052185 1.30659851 -27.34738159 1.30355835 C-41.03481161 1.29137396 -52.98255617 2.97455284 -65.9375 7.4375 C-69.504328 8.60594365 -70.23725827 8.70167519 -73.5625 7.625 C-52.57693331 0.70954901 -52.57693331 0.70954901 -43.5625 -0.375 C-42.69625 -0.48457031 -41.83 -0.59414063 -40.9375 -0.70703125 C-27.28079021 -2.12960519 -13.58572982 -1.91610224 0 0 Z " fill="#D66D64" transform="translate(419.5625,281.375)"/>
<path d="M0 0 C0.66 0 1.32 0 2 0 C2 32.34 2 64.68 2 98 C-0.97 98 -3.94 98 -7 98 C-7 97.67 -7 97.34 -7 97 C-5.02 97 -3.04 97 -1 97 C-1 94.36 -1 91.72 -1 89 C-0.67 89 -0.34 89 0 89 C0.33 60.29 0.66 31.58 1 2 C0.34 1.67 -0.32 1.34 -1 1 C-0.67 0.67 -0.34 0.34 0 0 Z " fill="#E6F2F9" transform="translate(577,452)"/>
<path d="M0 0 C1.96427573 2.94641359 2.52554822 4.65158025 3.25390625 8.04296875 C3.46853516 9.03490234 3.68316406 10.02683594 3.90429688 11.04882812 C4.12150391 12.08458984 4.33871094 13.12035156 4.5625 14.1875 C4.78357422 15.20392578 5.00464844 16.22035156 5.23242188 17.26757812 C7.12357383 26.1177122 8.15459443 34.53694067 8.1328125 43.57421875 C8.13376923 44.46107864 8.13472595 45.34793854 8.13571167 46.26167297 C8.13638805 48.12309847 8.13457185 49.98452639 8.13037109 51.84594727 C8.1249959 54.68966964 8.13034435 57.53323547 8.13671875 60.37695312 C8.13605825 62.19270868 8.13477766 64.00846414 8.1328125 65.82421875 C8.13483673 66.67014084 8.13686096 67.51606293 8.13894653 68.38761902 C8.12306559 72.39116457 7.99725007 76.09270095 7 80 C6.67 80 6.34 80 6 80 C6 63.83 6 47.66 6 31 C5.34 31 4.68 31 4 31 C2.60538274 20.67389771 1.2773648 10.3412193 0 0 Z " fill="#D25C53" transform="translate(769,396)"/>
<path d="M0 0 C0.33 0 0.66 0 1 0 C0.8612922 3.93778511 0.71281508 7.87514223 0.5625 11.8125 C0.52318359 12.93205078 0.48386719 14.05160156 0.44335938 15.20507812 C0.40146484 16.27822266 0.35957031 17.35136719 0.31640625 18.45703125 C0.27974854 19.44678955 0.24309082 20.43654785 0.20532227 21.45629883 C0 24 0 24 -1 27 C-1.0853013 29.87694671 -1.11585645 32.72900182 -1.09765625 35.60546875 C-1.0962413 36.44467361 -1.09482635 37.28387848 -1.09336853 38.14851379 C-1.08777215 40.82821216 -1.07522035 43.5078269 -1.0625 46.1875 C-1.05748453 48.00455608 -1.05292171 49.82161348 -1.04882812 51.63867188 C-1.03780391 56.09248013 -1.02054178 60.54622589 -1 65 C-1.33 65 -1.66 65 -2 65 C-2.83617571 59.88366036 -3.17214224 54.89396714 -3.203125 49.70703125 C-3.20991272 48.92644852 -3.21670044 48.14586578 -3.22369385 47.34162903 C-3.24058036 44.8318784 -3.24688379 42.32230366 -3.25 39.8125 C-3.25233643 38.96250427 -3.25467285 38.11250854 -3.25708008 37.23675537 C-3.27022961 24.5991561 -2.67644116 12.39447158 0 0 Z " fill="#D65B4F" transform="translate(245,412)"/>
<path d="M0 0 C2.25028329 0.14139481 4.50022206 0.28828003 6.75 0.4375 C8.62945312 0.55931641 8.62945312 0.55931641 10.546875 0.68359375 C14 1 14 1 15.78125 1.51367188 C18.86290337 2.18913991 21.80008135 2.1110166 24.953125 2.09765625 C25.94345734 2.09553383 25.94345734 2.09553383 26.95379639 2.09336853 C29.05257794 2.08779245 31.15125095 2.07524447 33.25 2.0625 C34.67708179 2.0574819 36.10416525 2.05291954 37.53125 2.04882812 C41.02086832 2.03783088 44.51042356 2.0205828 48 2 C41.67174259 5.31652554 35.24769389 5.19402526 28.25 5.1875 C27.35764648 5.18669434 26.46529297 5.18588867 25.54589844 5.18505859 C19.47980156 5.12850083 13.85899568 4.64853871 8 3 C6.4586813 2.62357233 4.91703024 2.24850213 3.375 1.875 C2.26125 1.58625 1.1475 1.2975 0 1 C0 0.67 0 0.34 0 0 Z " fill="#D0544D" transform="translate(482,422)"/>
<path d="M0 0 C0.33 0.99 0.66 1.98 1 3 C-1.3125 6.1875 -1.3125 6.1875 -4 9 C-4.66 9 -5.32 9 -6 9 C-6.268125 9.598125 -6.53625 10.19625 -6.8125 10.8125 C-8.04111253 13.07573361 -8.89031346 14.51540577 -11 16 C-13.6875 15.6875 -13.6875 15.6875 -16 15 C-16.33 13.68 -16.66 12.36 -17 11 C-15.68 11.99 -14.36 12.98 -13 14 C-12.22914063 13.07316406 -11.45828125 12.14632813 -10.6640625 11.19140625 C-9.65121968 9.98162177 -8.6381891 8.77199448 -7.625 7.5625 C-7.11710938 6.95083984 -6.60921875 6.33917969 -6.0859375 5.70898438 C-2.2265625 1.11328125 -2.2265625 1.11328125 0 0 Z " fill="#E15A4D" transform="translate(523,321)"/>
<path d="M0 0 C8.96376838 3.88993722 16.21586866 10.02565937 23 17 C22.34 17.33 21.68 17.66 21 18 C21 17.34 21 16.68 21 16 C19.68 15.67 18.36 15.34 17 15 C17 14.34 17 13.68 17 13 C16.34 13 15.68 13 15 13 C15 12.34 15 11.68 15 11 C14.1646875 10.8453125 14.1646875 10.8453125 13.3125 10.6875 C9.44414548 9.53744866 6.33531246 7.22354164 3 5 C3 4.34 3 3.68 3 3 C2.01 2.67 1.02 2.34 0 2 C0 1.34 0 0.68 0 0 Z " fill="#D25650" transform="translate(697,302)"/>
<path d="M0 0 C4.65415235 3.72332188 8.7759311 7.75431984 12.8125 12.125 C13.29243408 12.6396582 13.77236816 13.15431641 14.2668457 13.68457031 C16.65113605 16.29913502 18.64047445 18.7151348 20 22 C18.68 22 17.36 22 16 22 C15.77054688 21.28972656 15.54109375 20.57945312 15.3046875 19.84765625 C13.7316286 16.41424326 11.70474992 14.18948841 9.125 11.4375 C8.26132812 10.50808594 7.39765625 9.57867187 6.5078125 8.62109375 C4.93309369 6.97524278 3.32737723 5.35795099 1.6796875 3.78515625 C0 2 0 2 0 0 Z " fill="#D1524C" transform="translate(723,322)"/>
<path d="M0 0 C0 0.66 0 1.32 0 2 C-0.86165771 2.16604736 -0.86165771 2.16604736 -1.74072266 2.33544922 C-4.36963602 2.84449329 -6.99730712 3.35969444 -9.625 3.875 C-10.52863281 4.04902344 -11.43226563 4.22304688 -12.36328125 4.40234375 C-16.15870712 5.15034739 -19.74220959 5.90932889 -23.3984375 7.1953125 C-26.22292524 8.06895285 -27.25388453 7.82244808 -30 7 C-26.77198351 6.01701402 -23.54239567 5.03929198 -20.3125 4.0625 C-19.40048828 3.78470703 -18.48847656 3.50691406 -17.54882812 3.22070312 C-16.66259766 2.95322266 -15.77636719 2.68574219 -14.86328125 2.41015625 C-14.05157471 2.16402588 -13.23986816 1.91789551 -12.40356445 1.66430664 C-8.19097359 0.50001413 -4.37644186 -0.1250412 0 0 Z " fill="#D56A61" transform="translate(600,282)"/>
<path d="M0 0 C0.66 0 1.32 0 2 0 C2.67154933 1.28913487 3.33708859 2.58140204 4 3.875 C4.37125 4.59429688 4.7425 5.31359375 5.125 6.0546875 C6 8 6 8 6 10 C9.3 9.67 12.6 9.34 16 9 C12.37542083 11.71843438 11.19115285 12.41789544 7 13 C3.30250259 8.92000285 1.7410336 5.13604912 0 0 Z " fill="#D0534F" transform="translate(257,524)"/>
<path d="M0 0 C0.33 0 0.66 0 1 0 C1 6.27 1 12.54 1 19 C-1.97 19 -4.94 19 -8 19 C-8 18.67 -8 18.34 -8 18 C-6.02 18 -4.04 18 -2 18 C-2 15.36 -2 12.72 -2 10 C-1.67 10 -1.34 10 -1 10 C-0.67 6.7 -0.34 3.4 0 0 Z " fill="#DEE8EC" transform="translate(578,531)"/>
<path d="M0 0 C0.33 0 0.66 0 1 0 C1.01417969 0.97839844 1.02835938 1.95679688 1.04296875 2.96484375 C1.30885746 10.27319012 1.65608417 16.02937755 6.0390625 22.16796875 C7 24 7 24 6.6484375 26.23828125 C6.43445313 26.81964844 6.22046875 27.40101563 6 28 C-0.06987744 18.46162117 -0.74772557 10.91125458 0 0 Z " fill="#D0574B" transform="translate(645,404)"/>
<path d="M0 0 C0.66 0.66 1.32 1.32 2 2 C-2.47352044 6.59589638 -7.08064098 10.88380164 -12 15 C-12.66 14.67 -13.32 14.34 -14 14 C-9.38 9.38 -4.76 4.76 0 0 Z " fill="#DBEBF1" transform="translate(713,611)"/>
<path d="M0 0 C0.33 0.66 0.66 1.32 1 2 C0.34 2 -0.32 2 -1 2 C-1.226875 2.639375 -1.45375 3.27875 -1.6875 3.9375 C-3 6 -3 6 -5.625 6.75 C-6.800625 6.87375 -6.800625 6.87375 -8 7 C-8 7.66 -8 8.32 -8 9 C-10.375 10.6875 -10.375 10.6875 -13 12 C-13.66 11.67 -14.32 11.34 -15 11 C-14.01 10.67 -13.02 10.34 -12 10 C-12 9.34 -12 8.68 -12 8 C-10.02559073 6.5368217 -8.06761129 5.19286936 -6 3.875 C-5.42765625 3.50246094 -4.8553125 3.12992187 -4.265625 2.74609375 C-2.84778218 1.82449592 -1.42439275 0.91144179 0 0 Z " fill="#D85C4D" transform="translate(318,304)"/>
<path d="M0 0 C0.33 0 0.66 0 1 0 C1.37344442 6.97096259 0.14584821 11.70830358 -3 18 C-3.66 18 -4.32 18 -5 18 C-3.36959185 11.98922864 -1.72852643 5.98336072 0 0 Z " fill="#FAD8D7" transform="translate(772,494)"/>
<path d="M0 0 C0.33 0.99 0.66 1.98 1 3 C-0.65 3.66 -2.3 4.32 -4 5 C-4 5.66 -4 6.32 -4 7 C-5.97946592 8.36363208 -7.9819245 9.69418644 -10 11 C-11.79394446 12.62351109 -11.79394446 12.62351109 -13 14 C-13.66 13.67 -14.32 13.34 -15 13 C-10.35827355 8.09717644 -5.50719921 3.90510489 0 0 Z " fill="#D75C51" transform="translate(541,305)"/>
<path d="M0 0 C1.98111192 6.50936775 -1.65137286 12.91492059 -4 19 C-5.79341438 14.83326479 -4.01173384 11.25336659 -2.5625 7.25 C-2.19801758 6.20392578 -2.19801758 6.20392578 -1.82617188 5.13671875 C-1.22689752 3.42114902 -0.61470115 1.71010285 0 0 Z " fill="#D9665D" transform="translate(253,385)"/>
<path d="M0 0 C-1.20523048 3.61569144 -2.07185564 3.94669545 -5.3125 5.75 C-6.48232422 6.42289062 -6.48232422 6.42289062 -7.67578125 7.109375 C-10.30300917 8.11611108 -11.40927388 7.97226335 -14 7 C-12.04480616 5.82807953 -10.0857461 4.6626071 -8.125 3.5 C-7.03445313 2.8503125 -5.94390625 2.200625 -4.8203125 1.53125 C-2 0 -2 0 0 0 Z " fill="#D86156" transform="translate(561,294)"/>
<path d="M0 0 C3.98363358 1.32787786 6.10630834 3.00985195 9 6 C9.99 6.33 10.98 6.66 12 7 C13.60769874 9.33116317 14.09530596 10.42816426 13.625 13.25 C13.41875 13.8275 13.2125 14.405 13 15 C12.525625 14.175 12.05125 13.35 11.5625 12.5 C8.95683348 8.52991174 5.42728723 5.68439645 1.828125 2.63671875 C1.22484375 2.09660156 0.6215625 1.55648438 0 1 C0 0.67 0 0.34 0 0 Z " fill="#DA574C" transform="translate(439,375)"/>
<path d="M0 0 C0 0.66 0 1.32 0 2 C-3.36683915 4.43160605 -4.73350364 5 -9 5 C-9 5.66 -9 6.32 -9 7 C-10.98 7.33 -12.96 7.66 -15 8 C-12.61753661 5.31874582 -10.1454496 3.88576541 -6.9375 2.3125 C-5.62072266 1.65701172 -5.62072266 1.65701172 -4.27734375 0.98828125 C-2 0 -2 0 0 0 Z " fill="#D86358" transform="translate(345,290)"/>
<path d="M0 0 C0 0.33 0 0.66 0 1 C-6.69007182 0.47594437 -13.3487487 -0.10463925 -20 -1 C-20 -1.33 -20 -1.66 -20 -2 C-12.41049034 -3.07476716 -7.28226286 -2.54032425 0 0 Z " fill="#FBCEC5" transform="translate(564,600)"/>
<path d="M0 0 C0.33 0 0.66 0 1 0 C0.37802877 6.33881314 -0.28542887 12.67094142 -1 19 C-1.33 19 -1.66 19 -2 19 C-3.11388158 11.69937859 -3.17441612 6.72976216 0 0 Z " fill="#FDE3DC" transform="translate(244,413)"/>
<path d="M0 0 C3.38197228 1.12732409 4.24057814 2.14182373 6.5 4.8125 C7.0878125 5.49957031 7.675625 6.18664062 8.28125 6.89453125 C9.91149424 8.89158044 11.47060322 10.9250562 13 13 C10.20171644 12.61402985 9.1794116 12.19863427 7.25 10.0625 C6 8 6 8 6 6 C5.38125 5.7525 4.7625 5.505 4.125 5.25 C1.64931313 3.79371361 1.04874998 2.62187494 0 0 Z " fill="#DB6259" transform="translate(493,319)"/>
<path d="M0 0 C-1.44253657 3.36591866 -3.33264727 5.51047079 -6 8 C-6.33 6.02 -6.66 4.04 -7 2 C-4.35261084 0.5393715 -3.10551666 0 0 0 Z " fill="#DE5046" transform="translate(387,381)"/>
<path d="M0 0 C4.48525648 0.656379 8.66914029 1.70074209 13 3 C13 4.32 13 5.64 13 7 C8.50202887 5.31326082 4.27113698 3.18326108 0 1 C0 0.67 0 0.34 0 0 Z " fill="#DB554E" transform="translate(615,370)"/>
<path d="M0 0 C0.74056641 0.00902344 1.48113281 0.01804687 2.24414062 0.02734375 C4.05873467 0.05075787 5.87316071 0.08662385 7.6875 0.125 C7.6875 0.455 7.6875 0.785 7.6875 1.125 C6.841875 1.17398437 5.99625 1.22296875 5.125 1.2734375 C-1.25959185 1.69424014 -7.17042595 2.31850763 -13.3125 4.125 C-13.3125 3.465 -13.3125 2.805 -13.3125 2.125 C-8.90220217 -0.08449832 -4.82309676 -0.1120648 0 0 Z " fill="#DC4D43" transform="translate(417.3125,366.875)"/>
<path d="M0 0 C0.66 0.99 1.32 1.98 2 3 C1.1015625 5.69921875 1.1015625 5.69921875 -0.375 8.6875 C-0.85710937 9.68136719 -1.33921875 10.67523438 -1.8359375 11.69921875 C-2.22007812 12.45847656 -2.60421875 13.21773438 -3 14 C-4.45002516 9.22828601 -2.96642601 6.04023269 -0.875 1.625 C-0.58625 1.08875 -0.2975 0.5525 0 0 Z " fill="#DD4E4F" transform="translate(371,422)"/>
<path d="M0 0 C0.99 0.33 1.98 0.66 3 1 C4.6434546 5.35515469 5.14487716 7.42049138 4 12 C2.35 8.37 0.7 4.74 -1 1 C-0.67 0.67 -0.34 0.34 0 0 Z " fill="#D9594D" transform="translate(653,433)"/>
<path d="M0 0 C-4.95 2.475 -4.95 2.475 -10 5 C-10.33 4.34 -10.66 3.68 -11 3 C-10.34 3 -9.68 3 -9 3 C-9 2.34 -9 1.68 -9 1 C-5.19495213 -0.79682816 -4.29399165 -1.07349791 0 0 Z " fill="#D65A51" transform="translate(553,416)"/>
<path d="M0 0 C1.4540625 0.0309375 1.4540625 0.0309375 2.9375 0.0625 C0.05662454 2.46322955 -2.62654834 4.53541037 -6.0625 6.0625 C-3.76028481 0.07674051 -3.76028481 0.07674051 0 0 Z " fill="#DA514F" transform="translate(547.0625,752.9375)"/>
<path d="M0 0 C0.33 1.32 0.66 2.64 1 4 C0.34 4 -0.32 4 -1 4 C-1.66 5.32 -2.32 6.64 -3 8 C-3.99 7.67 -4.98 7.34 -6 7 C-4.02 4.69 -2.04 2.38 0 0 Z " fill="#E05E50" transform="translate(290,327)"/>
<path d="M0 0 C0.721875 0.144375 1.44375 0.28875 2.1875 0.4375 C3.5796875 0.7159375 3.5796875 0.7159375 5 1 C6.66666667 1.33333333 8.33333333 1.66666667 10 2 C10 2.99 10 3.98 10 5 C8.51800098 4.55090939 7.03944764 4.09043436 5.5625 3.625 C4.73878906 3.36976563 3.91507812 3.11453125 3.06640625 2.8515625 C1 2 1 2 0 0 Z " fill="#D85B55" transform="translate(490,765)"/>
<path d="M0 0 C0.66 0 1.32 0 2 0 C1.34 1.32 0.68 2.64 0 4 C-6.75 3.25 -6.75 3.25 -9 1 C-6.03 1.33 -3.06 1.66 0 2 C0 1.34 0 0.68 0 0 Z " fill="#D24D46" transform="translate(756,532)"/>
<path d="M0 0 C1.98 0 3.96 0 6 0 C2.4912812 3.09592835 -0.49197399 4.74194623 -5 6 C-5 5.34 -5 4.68 -5 4 C-4.360625 3.71125 -3.72125 3.4225 -3.0625 3.125 C-0.84793921 2.17176549 -0.84793921 2.17176549 0 0 Z " fill="#D14E46" transform="translate(281,525)"/>
<path d="M0 0 C1.43836751 0.11458693 2.87570966 0.24209116 4.3125 0.375 C5.51326172 0.47941406 5.51326172 0.47941406 6.73828125 0.5859375 C9 1 9 1 12 3 C10.37581255 3.08090971 8.75048255 3.13914995 7.125 3.1875 C5.76761719 3.23970703 5.76761719 3.23970703 4.3828125 3.29296875 C3.20332031 3.14794922 3.20332031 3.14794922 2 3 C1.34 2.01 0.68 1.02 0 0 Z " fill="#D8605A" transform="translate(420,282)"/>
<path d="M0 0 C0 0.33 0 0.66 0 1 C-4.62 1.33 -9.24 1.66 -14 2 C-13 0 -13 0 -10.9375 -0.6875 C-7.11000622 -1.09468019 -3.80415113 -0.58029424 0 0 Z " fill="#FDE1D9" transform="translate(480,597)"/>
<path d="M0 0 C0.33 0.99 0.66 1.98 1 3 C-0.43359375 5.04296875 -0.43359375 5.04296875 -2.4375 7.1875 C-3.09621094 7.90292969 -3.75492188 8.61835938 -4.43359375 9.35546875 C-4.95050781 9.89816406 -5.46742188 10.44085938 -6 11 C-6 7.39426104 -5.18292538 6.58663434 -3 3.8125 C-2.443125 3.09707031 -1.88625 2.38164062 -1.3125 1.64453125 C-0.879375 1.10183594 -0.44625 0.55914062 0 0 Z " fill="#FFE3E0" transform="translate(574,381)"/>
<path d="M0 0 C0 0.99 0 1.98 0 3 C-2.8125 5.25 -2.8125 5.25 -6 7 C-6.99 6.67 -7.98 6.34 -9 6 C-6.03 4.02 -3.06 2.04 0 0 Z " fill="#394C54" transform="translate(316,590)"/>
<path d="M0 0 C-3.21182149 1.90608098 -5.53882603 2.22266247 -9.25 2.125 C-10.14203125 2.10695313 -11.0340625 2.08890625 -11.953125 2.0703125 C-12.96632813 2.03550781 -12.96632813 2.03550781 -14 2 C-14 1.67 -14 1.34 -14 1 C-12.41913952 0.63495397 -10.83516093 0.28339494 -9.25 -0.0625 C-8.36828125 -0.25972656 -7.4865625 -0.45695312 -6.578125 -0.66015625 C-4.01320972 -0.99825872 -2.42908361 -0.81158635 0 0 Z " fill="#F9CFCD" transform="translate(534,425)"/>
<path d="M0 0 C0.33 1.32 0.66 2.64 1 4 C-2 6 -2 6 -4.1875 5.625 C-4.785625 5.41875 -5.38375 5.2125 -6 5 C-4.02 3.35 -2.04 1.7 0 0 Z " fill="#DE594C" transform="translate(302,316)"/>
<path d="M0 0 C0.66 0.33 1.32 0.66 2 1 C1.2575 1.8971875 1.2575 1.8971875 0.5 2.8125 C-1.28276418 4.97029994 -1.28276418 4.97029994 -1 8 C-1.99 8 -2.98 8 -4 8 C-3.50168276 4.31245243 -2.89932357 2.39509338 0 0 Z " fill="#324B52" transform="translate(276,552)"/>
<path d="M0 0 C3.79303725 1.00193437 6.71536341 1.81024227 10 4 C10 4.66 10 5.32 10 6 C5.56909529 4.79157144 3.01887244 3.48331435 0 0 Z " fill="#D4524D" transform="translate(462,411)"/>
<path d="M0 0 C0.66 0.33 1.32 0.66 2 1 C0.68 4.3 -0.64 7.6 -2 11 C-3.10510437 6.57958252 -2.64388555 5.10971388 -1 1 C-0.67 0.67 -0.34 0.34 0 0 Z " fill="#D6504C" transform="translate(566,389)"/>
<path d="M0 0 C0.33 0.99 0.66 1.98 1 3 C-0.65 4.32 -2.3 5.64 -4 7 C-3.6875 4.625 -3.6875 4.625 -3 2 C-2.01 1.34 -1.02 0.68 0 0 Z " fill="#DF6056" transform="translate(523,321)"/>
<path d="M0 0 C0.33 0.99 0.66 1.98 1 3 C-0.65 4.65 -2.3 6.3 -4 8 C-4.66 7.67 -5.32 7.34 -6 7 C-4.02 4.69 -2.04 2.38 0 0 Z " fill="#FDDBDB" transform="translate(335,484)"/>
<path d="M0 0 C0.66 0.66 1.32 1.32 2 2 C1.75 5.0625 1.75 5.0625 1 8 C0.01 8.495 0.01 8.495 -1 9 C-1.09765625 2.84765625 -1.09765625 2.84765625 -1 1 C-0.67 0.67 -0.34 0.34 0 0 Z " fill="#E64337" transform="translate(373,400)"/>
<path d="M0 0 C1.25541557 3.76624671 0.37061958 5.37188934 -1 9 C-1.66 9 -2.32 9 -3 9 C-2.44271087 5.65626525 -1.64826111 2.96687001 0 0 Z " fill="#D55B4F" transform="translate(261,368)"/>
<path d="M0 0 C0.33 0 0.66 0 1 0 C1 1.65 1 3.3 1 5 C0.01 5.33 -0.98 5.66 -2 6 C-2 6.99 -2 7.98 -2 9 C-2.66 9 -3.32 9 -4 9 C-2.80100302 5.9168649 -1.52299523 2.93720508 0 0 Z " fill="#DC675D" transform="translate(266,358)"/>
</svg>
