<svg xmlns="http://www.w3.org/2000/svg" width="652.628" height="385.666"><path fill="#e6e6e6" d="M203.628 227.612V21.06c0-10.876 8.849-19.725 19.725-19.725h409.55c10.877 0 19.725 8.849 19.725 19.725v206.55c0 10.877-8.848 19.725-19.724 19.725H223.353c-10.876 0-19.725-8.848-19.725-19.724m447-206.551c0-9.79-7.935-17.725-17.724-17.725H223.353c-9.79 0-17.725 7.936-17.725 17.725v206.55c0 9.79 7.936 17.725 17.725 17.725h278.57c82.128 0 148.705-66.577 148.705-148.704z"/><path fill="#fff" d="M347.915 38.907H118.38c-6.806 0-12.34 5.535-12.34 12.34v84.32c0 6.806 5.534 12.34 12.34 12.34h229.534c6.806 0 12.34-5.534 12.34-12.34v-84.32c0-6.805-5.534-12.34-12.34-12.34"/><path fill="#3f3d56" d="M347.915 38.907H118.38c-6.806 0-12.34 5.535-12.34 12.34v84.32c0 6.806 5.534 12.34 12.34 12.34h229.534c6.806 0 12.34-5.534 12.34-12.34v-84.32c0-6.805-5.534-12.34-12.34-12.34m11.042 96.66c0 6.092-4.95 11.043-11.042 11.043H118.38c-6.092 0-11.043-4.95-11.043-11.043v-84.32c0-6.092 4.95-11.042 11.043-11.042h229.534c6.092 0 11.042 4.95 11.042 11.043z"/><path fill="#ff6363" d="M129.128 77.336h204a3.5 3.5 0 0 1 0 7h-204a3.5 3.5 0 1 1 0-7m0 23h74a3.5 3.5 0 1 1 0 7h-74a3.5 3.5 0 1 1 0-7"/><path fill="#e6e6e6" d="M574.581 66.644h-140c-2.206 0-4-1.795-4-4s1.794-4 4-4h140c2.206 0 4 1.794 4 4s-1.794 4-4 4m26.541 86.748H406.04v-1c64.233 9.85 129.325 9.04 195.082 0zm-26.541-35.748h-140c-2.206 0-4-1.795-4-4s1.794-4 4-4h140c2.206 0 4 1.794 4 4s-1.794 4-4 4m-167.54 48.748h195.081v1H407.041zm167.54-75.056h-140c-2.206 0-4-1.794-4-4s1.794-4 4-4h140c2.206 0 4 1.795 4 4s-1.794 4-4 4m27.541 89.056c-67.338-4.58-132.732-5.31-195.082 0v-1h195.082z"/><path fill="#3f3d56" d="m332.893 164.118-8.23-3.898c3.376 4.71 6.284 12.068 7.841 17.922 2.637-5.453 6.887-12.126 11.094-16.112l-8.698 2.238c5.36-26.268 25.52-45.126 48.604-45.126v-2c-24.113 0-45.139 19.648-50.611 46.976"/><path fill="#ff6363" d="M370.772 204.142h-52c-2.205 0-4-1.794-4-4s1.795-4 4-4h52c2.206 0 4 1.795 4 4s-1.794 4-4 4"/><circle cx="237.628" cy="103.336" r="14" fill="#ff6363"/><path fill="#fff" d="M244.91 95.139c-.667-.39-1.686-.188-2.052.538l-4.992 9.89c-1.343-2.103-3.06-3.94-5.052-5.479-.642-.495-1.68-.097-2.052.539-.454.774-.106 1.555.538 2.052 2.323 1.794 4.114 4.207 5.32 6.869.459 1.012 2.112.948 2.59 0l6.238-12.357c.365-.723.191-1.626-.538-2.052"/><circle cx="405.628" cy="62.336" r="14" fill="#ff6363"/><path fill="#fff" d="M412.91 54.139c-.667-.39-1.686-.188-2.052.538l-4.992 9.89c-1.343-2.103-3.06-3.94-5.052-5.479-.642-.495-1.68-.097-2.052.539-.454.774-.106 1.555.538 2.052 2.323 1.794 4.114 4.207 5.32 6.869.459 1.012 2.112.948 2.59 0l6.238-12.357c.365-.723.191-1.626-.538-2.052"/><circle cx="606.628" cy="85.336" r="14" fill="#ff6363"/><path fill="#fff" d="M613.91 77.139c-.667-.39-1.686-.188-2.052.538l-4.992 9.89c-1.343-2.103-3.06-3.94-5.052-5.479-.642-.495-1.68-.097-2.052.539-.454.774-.106 1.555.538 2.052 2.323 1.794 4.114 4.207 5.32 6.869.459 1.012 2.112.948 2.59 0l6.238-12.357c.365-.723.191-1.626-.538-2.052"/><path fill="#e6e6e6" d="M292.844 172.917h-33.721a3.8 3.8 0 0 1-3.797-3.797c-4.459-13.032-4.37-25.8 0-38.323a3.8 3.8 0 0 1 3.797-3.797h33.721a3.8 3.8 0 0 1 3.797 3.797v38.323a3.8 3.8 0 0 1-3.797 3.797"/><path fill="#fff" d="M266.348 128.131c-5.463 0-9.89 4.429-9.89 9.891v30.285a3.48 3.48 0 0 0 3.478 3.479h18.648c9.348 0 16.926-7.578 16.926-16.926v-23.25a3.48 3.48 0 0 0-3.479-3.479z"/><path fill="#e6e6e6" d="M283.837 139.268h-15.788a.723.723 0 0 1 0-1.443h15.788a.722.722 0 0 1 0 1.443m0 15.392h-15.788a.723.723 0 0 1 0-1.443h15.788a.722.722 0 0 1 0 1.444m8.472-7.691h-32.732a.723.723 0 0 1 0-1.444h32.732a.722.722 0 0 1 0 1.443m.386 13.951h-13.658a.723.723 0 0 1 0-1.444h13.658a.722.722 0 0 1 0 1.443"/><path fill="#2f2e41" d="M60.517 68.071c.888-4.096 1.149-1.079 3.08-4.794-1.325 4.801 1.122 3.229 4.372 6.994 22.843 3.581 24.283-4.242 32.736-4.003h.044c1.86-.03 2.816-2.257 1.694-3.742-2.769-3.665-5.821-9.321-2.933-12.882 5.118-6.308.608-19.243-1.598-16.447 0-10.787-13.284-17.86-18.437-16.108-9.521 3.239-18.34 7.606-19.407 17.38a65 65 0 0 1-.657 4.553c-.557 3.068-2.85 3.882-2.06 6.895l2.467 2.51c1.158 4.421.792 9.062-.794 13.348-.877 2.369-.999 4.4 1.493 6.296"/><circle cx="84.298" cy="39.278" r="14.319" fill="#a0616a"/><path fill="#a0616a" d="m61.993 365.697 7.374.174 4.11-33.128-10.882-.257z"/><path fill="#2f2e41" d="M87.292 381.08c0 1.247-.884 2.256-1.975 2.256H70.681s-1.44-5.79-7.313-8.281l-.405 8.281h-7.55l.914-13.316s-2.02-7.124 2.175-10.766c4.195-3.641.797-3.134.797-3.134l1.65-8.242 11.41 1.341.084 12.938L77.98 375l8.121 4.012c.723.357 1.19 1.17 1.19 2.07"/><path fill="#a0616a" d="m70.103 335.642 5.857 4.483 22.831-24.353-8.643-6.617z"/><path fill="#2f2e41" d="M81.49 362.974c-.735 1.006-2.044 1.302-2.925.66l-11.829-8.62s2.246-5.528-1.033-11l-5.205 6.455-6.102-4.447 8.582-10.223s2.563-6.947 8.098-7.42c5.534-.473 2.49-2.064 2.49-2.064l6.187-5.69 8.431 7.804-7.551 10.506-3.088 13.639 4.2 8.025c.375.714.274 1.647-.256 2.374"/><path fill="#2f2e41" d="M49.003 196.309c.444 1.823-.374 10.306.083 13.225 1.165 7.422 11.802 47.887 9.967 59.422-6.724 42.266 2.575 69.38 2.575 69.38h15l8-128 7.808 10.293 15.278 45.631-27.026 48.592L94.8 326.506l42.133-66.991-29.94-112.064-1.809-6.766-40.453-1.129 2.251 3.373-5.12 5.06s-.007.013-.034.04c-.79 1.102-18.32 25.765-12.825 48.28"/><path fill="#a0616a" d="M61.828 148.029c4.685 1.673 36.346-.054 45.165-.578l-1.809-6.766-40.453-1.129 2.251 3.373-5.12 5.06s-.007.013-.034.04"/><path fill="#ff6363" d="m114.189 93.843-1.457 7.731-.354 1.855-7.75 15.907 1.019 23.321c.652 2.73-26.867-3.464-41.163 2.934l-11.128-53.22 11.284-24.53 8.83-4.905 1.472-5.887h18.706c.996 4.665-.084 6.964-2.02 8.287l4.686 12.497z"/><path fill="#a0616a" d="M128.82 48.239c-.231 2.002-.896 3.786-1.814 5.13l-1 19.214-9.13-.744 1.999-19.41c-.587-1.519-.827-3.407-.596-5.41.53-4.573 3.318-8.008 6.229-7.672 2.91.337 4.841 4.318 4.312 8.892"/><path fill="#ff6363" d="m92.437 68.43 1.191 2.906s-17.4-1.743-17.028 7.342c.317 7.752 33.069 38.472 34.634 39.19 4.635 2.123 10.022-.736 10.86-5.765 7.376-19.027 8.904-36.181 5.534-51.767h-10l-3.256 12.295-.183 9.353-5.273 11.248-17.288-21.896z"/><path fill="#a0616a" d="M34.464 175.224c.643-1.96.79-3.901.514-5.544l7.304-18.275-8.798-3.221-6.462 18.885c-1.196 1.16-2.228 2.811-2.871 4.77-1.469 4.475-.35 8.861 2.497 9.796s6.348-1.936 7.816-6.411"/><path fill="#ff6363" d="M76.594 68.44s-10.803-4.096-16.935.909c-2.53 2.064-13.714 16.287-15.437 35.436-.135 1.5-1.157 2.792-1.733 4.195-3.552 8.656-9.667 12.643-12.267 20.046-1.017 2.893.847 10.375.205 12.87-3.362 13.07-2.149 20.521-2.149 20.521l9.079 3.023 4.925-3.481 8.088-29.538z"/><path fill="#e6e6e6" d="M157.844 45.917h-33.721a3.8 3.8 0 0 1-3.797-3.797c-4.459-13.032-4.37-25.8 0-38.323A3.8 3.8 0 0 1 124.123 0h33.721a3.8 3.8 0 0 1 3.797 3.797V42.12a3.8 3.8 0 0 1-3.797 3.797"/><path fill="#fff" d="M131.348 1.131c-5.463 0-9.89 4.429-9.89 9.891v30.285a3.48 3.48 0 0 0 3.478 3.479h18.648c9.348 0 16.926-7.578 16.926-16.926V4.61a3.48 3.48 0 0 0-3.479-3.479z"/><path fill="#e6e6e6" d="M148.837 12.268h-15.788a.723.723 0 0 1 0-1.443h15.788a.722.722 0 0 1 0 1.443m0 15.392h-15.788a.723.723 0 0 1 0-1.443h15.788a.722.722 0 0 1 0 1.444m8.472-7.691h-32.732a.723.723 0 0 1 0-1.444h32.732a.722.722 0 0 1 0 1.443m.386 13.951h-13.658a.723.723 0 0 1 0-1.444h13.658a.722.722 0 0 1 0 1.443"/><path fill="#f2f2f2" d="M167.551 366.84c2.066.13 3.208-2.437 1.645-3.933l-.155-.618.061-.149c2.09-4.981 9.17-4.947 11.242.042 1.838 4.428 4.18 8.864 4.755 13.546a18 18 0 0 1-.316 6.2c4.308-9.41 6.575-19.686 6.575-30.02q.002-3.897-.433-7.783a72 72 0 0 0-.994-6.31c-2.306-11.278-7.299-22.019-14.5-30.99-3.462-1.893-6.35-4.85-8.093-8.397-.627-1.279-1.118-2.654-1.35-4.056.394.052 1.485-5.949 1.188-6.317.55-.833 1.532-1.247 2.132-2.06 2.982-4.043 7.09-3.337 9.236 2.157 4.582 2.313 4.626 6.148 1.815 9.837-1.789 2.347-2.035 5.522-3.604 8.035.161.207.33.407.49.614a73.6 73.6 0 0 1 7.682 12.168c-.61-4.766.29-10.508 1.826-14.21 1.748-4.217 5.025-7.769 7.91-11.415 3.466-4.379 10.574-2.468 11.184 3.084l.018.161a21 21 0 0 0-1.259.77c-2.34 1.547-1.53 5.174 1.241 5.602l.063.01a30.6 30.6 0 0 1-.807 4.579c3.701 14.316-4.29 19.53-15.702 19.764-.252.129-.497.258-.75.381a73 73 0 0 1 2.765 9.979 74 74 0 0 1 1.28 9.049c.296 3.83.27 7.68-.053 11.503l.02-.136c.82-4.21 3.107-8.144 6.426-10.87 4.946-4.063 11.933-5.559 17.269-8.824 2.568-1.572 5.86.46 5.41 3.437l-.02.143q-1.194.485-2.32 1.117-.643.363-1.258.77c-2.34 1.547-1.531 5.174 1.24 5.602l.064.01.129.019a30.7 30.7 0 0 1-5.639 8.829c-2.314 12.497-12.256 13.683-22.89 10.043h-.006a75 75 0 0 1-5.045 14.727h-18.02c-.065-.2-.123-.407-.181-.608 1.666.104 3.346.007 4.986-.297-1.337-1.64-2.674-3.294-4.01-4.934a1 1 0 0 1-.085-.097c-.678-.84-1.362-1.673-2.04-2.513h-.001a30 30 0 0 1 .879-7.64"/><path fill="#ccc" d="M0 384.476c0 .66.53 1.19 1.19 1.19h218.29c.66 0 1.19-.53 1.19-1.19s-.53-1.19-1.19-1.19H1.19c-.66 0-1.19.53-1.19 1.19"/><path fill="#2f2e41" d="M88.18 22.336h-2.915c-8.528.01-23.105 12.072-17.465 20.533-4.816 12.847-4.991 19.531-2.947 23.03.753 1.287 2.247 1.874 3.735 1.77q.297-.021.6-.012c1.44.048 3.374 6.824 4.716 7.345l3.562-1.083 5.842-5.837-2.964-8.904-5.736-4.488.781-10.394c-3.84-8.824.338-9.256 2.688-12.103l.238 9.132 3.367-3.248c2.742.07 5.946 1.26 8.077-1.213 3.87-4.528 7.88.939 12.451 2.043l1.418-1.122c.049-2.546-.328-5.004-1.059-7.206-.344-1.036-1.224-1.89-1.26-2.92-.14-3.865-7.445-7.614-13.13-5.323"/></svg>