<svg xmlns="http://www.w3.org/2000/svg" width="1024" height="1024"><path fill="#FAFEFE" d="M0 0h1024v1024H0z"/><path fill="#213945" d="M431 390c5.096 4.467 9.076 9.437 11 16q.15 2.749.25 5.5c.306 3.872.701 6.192 3.375 9.063A82 82 0 0 0 450 424l1.525 1.152c22.233 16.571 47.637 21.633 75.041 18.38C545.69 440.684 564.352 430.647 578 417c.176-2.016.268-4.04.313-6.062.534-8.205 3.004-13.733 9.062-19.313 5.012-3.897 9.968-6.208 16.453-5.906 8.903 1.153 15.095 4.134 20.676 11.18 2.928 4.488 3.701 8.018 3.808 13.351.611 15.716 9.35 31.123 16.688 44.75l1.082 2.042C651.011 466.31 656.408 474.794 663 483l2.25 2.832c4.416 5.481 9.016 10.76 13.762 15.957a111 111 0 0 1 4.55 5.399c2.53 2.919 5.22 5.338 8.18 7.808 1.951 1.732 3.756 3.516 5.578 5.379 3.357 3.376 6.868 6.341 10.68 9.188l2.015 1.513c7.065 5.183 14.544 9.674 22.09 14.116 14.38 8.503 14.38 8.503 15.895 13.808.644 4.295.918 6.58-1.46 10.262-3.292 3.868-5.478 6.334-10.713 7.025-7.083.32-10.964-1.503-16.577-5.662l-2.349-1.658a460 460 0 0 1-4.698-3.373c-1.963-1.42-3.945-2.8-5.95-4.16-9.007-6.17-17.085-13.19-25.253-20.434l-1 38 6 2q2.399 1.07 4.75 2.242l2.594 1.293 2.656 1.34 2.656 1.316c13.749 6.895 13.749 6.895 17.344 13.809.65 3.905.314 5.48-1.741 8.882-2.135 2.946-4.33 5.436-6.9 8.003l-2.773 2.781-2.977 2.955-3.086 3.085q-3.228 3.225-6.466 6.443-4.118 4.095-8.223 8.203-3.186 3.186-6.378 6.365-1.515 1.51-3.028 3.022C668.784 656.374 663.053 661.808 657 667a321 321 0 0 0-4.043 3.762l-2.045 1.934-2.1 1.991q-2.236 2.115-4.476 4.227l-2.216 2.09C634.538 688.14 626.913 695.233 619 702l-2.883 2.48c-6.799 5.821-13.734 11.434-20.8 16.926-3.866 3.007-7.65 6.112-11.426 9.23C582 732 582 732 580 732v2c-1.914 1.375-1.914 1.375-4.625 3-4.525 2.789-8.84 5.74-13.125 8.875-9.895 7.163-20.381 13.207-31.125 19l-2.052 1.12c-10.642 5.633-19.278 7.611-31.073 4.005-2.514-1.06-4.894-2.137-7.312-3.375l-2.057-1.044C467.947 754.825 448.976 740.751 431 726l-2.992-2.437a2058 2058 0 0 1-5.406-4.426 1505 1505 0 0 0-5.266-4.305C406.659 706.14 396.186 697.264 386 688l-4.625-4.125A816 816 0 0 1 347 651l-7.937-7.937-1.524-1.524-4.601-4.601-1.51-1.508a760 760 0 0 1-3.838-3.88 221 221 0 0 0-6.149-5.82l-1.92-1.755a764 764 0 0 0-3.906-3.54c-10.833-9.953-10.833-9.953-12.303-16.497 1.211-5.173 3.783-8.662 8.141-11.58 2.937-1.626 5.907-3.135 8.922-4.608l3.078-1.562c5.13-2.585 10.257-4.921 15.547-7.188v-37l-6.312 5.375c-7.585 6.282-15.62 11.806-23.813 17.25l-1.793 1.196C289.056 577.814 289.056 577.814 280 576c-3.428-2.023-6.208-4.416-8-8a74 74 0 0 1-.312-5.312l-.114-2.864c.566-3.75 1.732-5.16 4.426-7.824 2.406-1.657 4.936-3.041 7.5-4.437 20.164-11.453 37.52-25.485 53.938-41.75l2.548-2.52c5.12-5.148 9.683-10.472 14.014-16.293q1.696-2.202 3.395-4.402c16.74-22.067 33.896-49.827 35.953-78.004 1.157-6.376 5.51-11.73 10.652-15.594 9.145-4.53 18.249-4.187 27 1"/><path fill="#EE493A" d="m484 310 2.969 2.379C492.889 317.15 498.2 322.078 503 328q1.714 2.005 3.438 4l2.562 3a124 124 0 0 0 8.313-8.875c2.978-3.435 6.137-6.423 9.609-9.352a112 112 0 0 0 4.094-3.671c27.654-25.913 65.12-34.091 101.89-33.22 22.182.85 45.299 9.621 64.094 21.118l3.203 1.922c23.694 15.01 41.59 36.138 55.63 60.1a210 210 0 0 0 2.913 4.763c12.173 20.289 18.265 47.638 18.492 71.156l.03 2.536c.234 25.154-1.68 47.709-10.268 71.523l-.89 2.485a587 587 0 0 1-2.735 7.39l-.84 2.253c-1.612 4.133-3.118 7.91-6.535 10.872-6.319.25-11.264-2.944-16.625-6l-2.671-1.5c-15.04-8.555-28.449-18.851-40.641-31.125l-2.646-2.659c-6.244-6.353-12.007-12.855-17.226-20.071-1.23-1.7-2.49-3.376-3.754-5.051-6.29-8.444-11.554-17.276-16.437-26.594l-1.446-2.696c-5.85-11-10.528-20.272-10.476-32.855-.221-9.763-5.555-18.649-12.113-25.61-9.587-9.045-18.995-12.376-32.004-12.112-11.1.766-19.41 5.348-26.93 13.375-5.177 6.208-8.87 13.05-9.468 21.21-.546 3.575-1.005 5.103-3.766 7.415L558 413l-2.297 1.648c-17.267 11.17-40.94 15.375-61.14 11.602q-2.293-.587-4.563-1.25l-2.988-.742c-10.255-2.776-21.32-7.759-29.012-15.258-.969-2.883-.969-2.883-1.5-6.125-2.076-10.24-5.992-18.49-14.5-24.875-11.337-6.843-21.509-9.712-34.824-7.54-6.187 1.652-11.163 4.605-16.176 8.54l-1.871 1.453c-6.124 5.4-11.907 15.332-13.129 23.547l.07 3.047C376.418 430.6 359.286 455.215 345 473l-2.23 2.828c-5.946 7.358-12.272 14.305-18.77 21.172l-1.934 2.063c-12.825 13.286-28.82 23.834-44.878 32.75l-2.877 1.618-2.706 1.464-2.401 1.307c-2.587.937-3.692.867-6.204-.202-4.063-4.932-6.152-10.774-8.437-16.687l-1.194-3.083c-2.377-6.275-4.52-12.557-6.244-19.043l-.54-2.016c-3.646-14.65-5.113-28.99-4.96-44.046l.015-2.518c.166-23.609 3.018-48.324 14.253-69.507 1.237-2.277 1.237-2.277 2.544-5.475C267.765 351.987 284.086 327.427 304 314h2v-2c1.35-1.17 1.35-1.17 3.27-2.469l2.163-1.466C363.937 273.535 433.226 267.485 484 310"/><path fill="#EE4939" d="m508.75 578.75 2.547.002c16.292.044 32.268.951 48.381 3.405q3.464.523 6.93 1.027l4.42.66 2.085.306c4.771.734 4.771.734 5.887 1.85.133 1.894.196 3.793.232 5.692l.078 3.747.07 4.15.083 4.34c.25 13.226.424 26.454.58 39.68.117 9.78.27 19.558.469 29.337.136 6.873.23 13.745.295 20.62.039 4.106.097 8.21.201 12.315.098 3.867.143 7.73.148 11.598q.015 2.125.091 4.248c.147 4.307.107 8.163-1.247 12.273-3.3 3.229-6.853 5.053-11 7a72 72 0 0 0-3.61 2.555c-10.904 8.056-22.337 14.889-34.265 21.32l-2.052 1.12c-10.642 5.633-19.278 7.611-31.073 4.005-2.514-1.06-4.894-2.137-7.312-3.375l-2.057-1.044C473.654 757.793 459.508 748.095 446 738l-2.577-1.704C441 734 441 734 440.385 731.196l.014-3.296-.021-3.79.054-4.15q.003-2.188-.002-4.376c-.001-3.959.028-7.917.063-11.875.031-4.137.034-8.275.04-12.412.016-7.834.057-15.668.107-23.502.056-8.919.083-17.837.108-26.756.053-18.347.14-36.693.252-55.039q4.544-.97 9.09-1.935l2.578-.551c6.645-1.408 13.263-2.54 20.02-3.264l3.448-.37c10.866-1.023 21.707-1.143 32.614-1.13"/><path fill="#FDFDFD" d="M442 452c3.19 1.276 5.94 2.428 8.89 4.059l2.153 1.17q2.187 1.197 4.367 2.406l2.168 1.174 1.92 1.056c3.71 1.683 7.637 2.847 11.502 4.135v81c-23 3-23 3-31 3z"/><path fill="#FCFDFD" d="M579 452v98c-9 0-9 0-30-3v-80l16-8c4.891-2.84 4.891-2.84 9.742-5.75C577 452 577 452 579 452"/><path fill="#FAF9F9" d="m508.75 578.75 2.547.002c16.292.044 32.268.951 48.381 3.405q3.464.523 6.93 1.027l4.42.66 2.085.306c4.771.734 4.771.734 5.887 1.85a63 63 0 0 1 .098 4.254l-.01 2.588-.025 2.72-.014 2.733q-.018 3.352-.049 6.705l-2.034-.411c-43.033-8.597-85.347-11.202-128.36-1.359C445 604 445 604 442 604v-18c22.103-5.526 44.033-7.276 66.75-7.25"/><path fill="#F9FBFB" d="M496 471h29v75h-29zm-105 9h2v82c-21 6-21 6-30 8-.178-7.42-.3-14.838-.385-22.26a748 748 0 0 0-.143-7.568 729 729 0 0 1-.156-10.895l-.11-3.403c-.003-7.71-.003-7.71 2.301-11.076 1.749-1.748 3.562-3.259 5.493-4.798 1.893-2.11 3.636-4.324 5.375-6.562l1.402-1.792c5.21-6.769 10.395-13.99 14.223-21.646m237 2h2c1.202 1.402 1.202 1.402 2.54 3.367l1.496 2.17 1.589 2.338c7.285 10.966 7.285 10.966 16.079 20.671 3.953 3.847 5.763 6.653 6.09 12.227 0 2.201-.04 4.402-.11 6.602l-.03 3.53c-.04 3.7-.127 7.396-.216 11.095a2926 2926 0 0 0-.096 7.55c-.077 6.152-.194 12.3-.342 18.45l-1.693-.519q-3.87-1.182-7.745-2.356l-2.662-.816-2.646-.801-2.396-.73c-3.917-1.066-7.895-1.897-11.858-2.778z"/><path fill="#B65A56" d="M441 586h1v18l3.969-.988c20.287-4.922 39.93-7.28 60.781-7.262l2.331.002c9.011.026 17.949.315 26.919 1.248v1l-3.656-.016q-6.69-.026-13.379-.039-2.9-.008-5.8-.02-4.159-.018-8.317-.023l-2.636-.015c-2.071 0-4.142.05-6.212.113l-1 1c-2.962.212-5.91.377-8.875.5q-2.465.103-4.93.219l-2.218.092c-2.188.135-2.188.135-4.977 1.189a99 99 0 0 1-5.187.063l-2.731-.028L464 601v2l-1.898.184-2.477.254c-.812.08-1.624.162-2.46.246-2.208.207-2.208.207-4.165 1.316h-11v129h-1z"/><path fill="#D66D64" d="m419.563 281.375 2.722.382c6.316.977 6.316.977 9.715 3.243q-2.47.039-4.937.063l-2.778.035C422 285 422 285 421 284c-8.669-1.553-17.717-1.282-26.5-1.312l-2.285-.01c-13.687-.012-25.635 1.672-38.59 6.135-3.567 1.168-4.3 1.264-7.625.187 20.986-6.915 20.986-6.915 30-8l2.625-.332c13.657-1.423 27.352-1.21 40.938.707"/><path fill="#E6F2F9" d="M577 452h2v98h-9v-1h6v-8h1l1-87-2-1z"/><path fill="#D25C53" d="M769 396c1.964 2.946 2.526 4.652 3.254 8.043l.65 3.006.659 3.139.67 3.08c1.89 8.85 2.922 17.269 2.9 26.306l.003 2.688q0 2.792-.006 5.584c-.005 2.844 0 5.687.007 8.531q0 2.724-.004 5.447l.006 2.564c-.016 4.003-.142 7.705-1.139 11.612h-1v-49h-2a2755 2755 0 0 1-4-31"/><path fill="#D65B4F" d="M245 412h1q-.21 5.906-.437 11.813l-.12 3.392-.127 3.252-.11 3C245 436 245 436 244 439a239 239 0 0 0-.098 8.605l.005 2.544c.005 2.68.018 5.359.03 8.038l.014 5.452q.017 6.68.049 13.361h-1c-.836-5.116-1.172-10.106-1.203-15.293l-.02-2.365c-.018-2.51-.024-5.02-.027-7.53l-.007-2.575c-.013-12.638.58-24.843 3.257-37.237"/><path fill="#D0544D" d="M482 422q3.375.212 6.75.438l3.797.246c3.453.316 3.453.316 5.234.83 3.082.675 6.02.597 9.172.584l2-.005c2.1-.005 4.198-.018 6.297-.03q2.14-.009 4.281-.014 5.235-.017 10.469-.049c-6.328 3.317-12.752 3.194-19.75 3.188l-2.704-.003c-6.066-.056-11.687-.536-17.546-2.185a2508 2508 0 0 0-4.625-1.125L482 423z"/><path fill="#E15A4D" d="m523 321 1 3c-2.312 3.188-2.312 3.188-5 6h-2l-.812 1.813c-1.23 2.263-2.078 3.702-4.188 5.187-2.687-.312-2.687-.312-5-1l-1-4 4 3 2.336-2.809 3.039-3.628 1.54-1.854c3.858-4.596 3.858-4.596 6.085-5.709"/><path fill="#D25650" d="M697 302c8.964 3.89 16.216 10.026 23 17l-2 1v-2l-4-1v-2h-2v-2l-1.687-.312c-3.869-1.15-6.978-3.464-10.313-5.688v-2l-3-1z"/><path fill="#D1524C" d="M723 322c4.654 3.723 8.776 7.754 12.813 12.125l1.454 1.56c2.384 2.614 4.373 5.03 5.733 8.315h-4l-.695-2.152c-1.573-3.434-3.6-5.659-6.18-8.41l-2.617-2.817a151 151 0 0 0-4.828-4.836C723 324 723 324 723 322"/><path fill="#D56A61" d="M600 282v2l-1.74.335q-3.944.766-7.885 1.54l-2.738.527c-3.796.748-7.38 1.507-11.035 2.793-2.825.874-3.856.627-6.602-.195q4.842-1.473 9.688-2.937l2.763-.842 2.686-.81 2.46-.747c4.212-1.164 8.027-1.789 12.403-1.664"/><path fill="#D0534F" d="M257 524h2q1.007 1.934 2 3.875l1.125 2.18C263 532 263 532 263 534l10-1c-3.625 2.718-4.809 3.418-9 4-3.697-4.08-5.259-7.864-7-13"/><path fill="#DEE8EC" d="M578 531h1v19h-9v-1h6v-8h1z"/><path fill="#D0574B" d="M645 404h1l.043 2.965c.266 7.308.613 13.064 4.996 19.203.961 1.832.961 1.832.61 4.07L651 432c-6.07-9.538-6.748-17.089-6-28"/><path fill="#DBEBF1" d="m713 611 2 2a186 186 0 0 1-14 13l-2-1z"/><path fill="#D85C4D" d="m318 304 1 2h-2l-.687 1.938C315 310 315 310 312.375 310.75L310 311v2c-2.375 1.688-2.375 1.688-5 3l-2-1 3-1v-2a103 103 0 0 1 6-4.125l1.734-1.129A710 710 0 0 1 318 304"/><path fill="#FAD8D7" d="M772 494h1c.373 6.971-.854 11.708-4 18h-2c1.63-6.01 3.271-12.017 5-18"/><path fill="#D75C51" d="m541 305 1 3-5 2v2a249 249 0 0 1-6 4c-1.794 1.624-1.794 1.624-3 3l-2-1c4.642-4.903 9.493-9.095 15-13"/><path fill="#D9665D" d="M253 385c1.981 6.51-1.651 12.915-4 19-1.793-4.167-.012-7.747 1.438-11.75l.736-2.113A605 605 0 0 1 253 385"/><path fill="#D86156" d="M561 294c-1.205 3.616-2.072 3.947-5.312 5.75l-2.364 1.36c-2.627 1.006-3.733.862-6.324-.11q2.933-1.757 5.875-3.5l3.305-1.969C559 294 559 294 561 294"/><path fill="#DA574C" d="M439 375c3.984 1.328 6.106 3.01 9 6l3 1c1.608 2.331 2.095 3.428 1.625 6.25L452 390l-1.437-2.5c-2.606-3.97-6.136-6.816-9.735-9.863L439 376z"/><path fill="#D86358" d="M345 290v2c-3.367 2.432-4.734 3-9 3v2l-6 1c2.382-2.681 4.855-4.114 8.063-5.687l2.66-1.325C343 290 343 290 345 290"/><path fill="#FBCEC5" d="M564 600v1c-6.69-.524-13.349-1.105-20-2v-1c7.59-1.075 12.718-.54 20 2"/><path fill="#FDE3DC" d="M244 413h1c-.622 6.339-1.285 12.67-2 19h-1c-1.114-7.3-1.174-12.27 2-19"/><path fill="#DB6259" d="M493 319c3.382 1.127 4.24 2.142 6.5 4.813l1.781 2.082c1.63 1.997 3.19 4.03 4.719 6.105-2.798-.386-3.82-.801-5.75-2.937C499 327 499 327 499 325l-1.875-.75c-2.476-1.456-3.076-2.628-4.125-5.25"/><path fill="#DE5046" d="M387 381c-1.443 3.366-3.333 5.51-6 8l-1-6c2.647-1.46 3.894-2 7-2"/><path fill="#DB554E" d="M615 370c4.485.656 8.67 1.7 13 3v4c-4.498-1.687-8.729-3.817-13-6z"/><path fill="#DC4D43" d="m417.313 366.875 2.244.027c1.814.024 3.629.06 5.443.098v1l-2.562.148c-6.385.421-12.296 1.046-18.438 2.852v-2c4.41-2.21 8.49-2.237 13.313-2.125"/><path fill="#DD4E4F" d="m371 422 2 3c-.898 2.7-.898 2.7-2.375 5.688l-1.46 3.011L368 436c-1.45-4.772.034-7.96 2.125-12.375z"/><path fill="#D9594D" d="m653 433 3 1c1.643 4.355 2.145 6.42 1 11l-5-11z"/><path fill="#D65A51" d="m553 416-10 5-1-2h2v-2c3.805-1.797 4.706-2.073 9-1"/><path fill="#DA514F" d="M547.063 752.938 550 753c-2.88 2.4-5.564 4.473-9 6 2.302-5.986 2.302-5.986 6.063-6.062"/><path fill="#E05E50" d="m290 327 1 4h-2l-2 4-3-1z"/><path fill="#D85B55" d="m490 765 2.188.438L495 766l5 1v3q-2.222-.676-4.437-1.375l-2.497-.773C491 767 491 767 490 765"/><path fill="#D24D46" d="M756 532h2l-2 4c-6.75-.75-6.75-.75-9-3l9 1z"/><path fill="#D14E46" d="M281 525h6c-3.509 3.096-6.492 4.742-11 6v-2l1.938-.875c2.214-.953 2.214-.953 3.062-3.125"/><path fill="#D8605A" d="M420 282q2.157.174 4.313.375l2.425.21C429 283 429 283 432 285c-1.624.08-3.25.14-4.875.188l-2.742.105L422 285z"/><path fill="#FDE1D9" d="M480 597v1l-14 1c1-2 1-2 3.063-2.687 3.827-.408 7.133.107 10.937.687"/><path fill="#FFE3E0" d="m574 381 1 3c-1.434 2.043-1.434 2.043-3.437 4.188l-1.997 2.167L568 392c0-3.606.817-4.413 3-7.187l1.688-2.168z"/><path fill="#394C54" d="M316 590v3c-2.812 2.25-2.812 2.25-6 4l-3-1z"/><path fill="#F9CFCD" d="M534 425c-3.212 1.906-5.539 2.223-9.25 2.125l-2.703-.055L520 427v-1q2.371-.546 4.75-1.062l2.672-.598c2.565-.338 4.149-.152 6.578.66"/><path fill="#DE594C" d="m302 316 1 4c-3 2-3 2-5.187 1.625L296 321z"/><path fill="#324B52" d="m276 552 2 1-1.5 1.813c-1.783 2.157-1.783 2.157-1.5 5.187h-3c.498-3.688 1.1-5.605 4-8"/><path fill="#D4524D" d="M462 411c3.793 1.002 6.715 1.81 10 4v2c-4.43-1.208-6.981-2.517-10-6"/><path fill="#D6504C" d="m566 389 2 1-4 10c-1.105-4.42-.644-5.89 1-10z"/><path fill="#DF6056" d="m523 321 1 3-5 4c.313-2.375.313-2.375 1-5z"/><path fill="#FDDBDB" d="m335 484 1 3-5 5-2-1z"/><path fill="#E64337" d="m373 400 2 2c-.25 3.063-.25 3.063-1 6l-2 1c-.098-6.152-.098-6.152 0-8z"/><path fill="#D55B4F" d="M261 368c1.255 3.766.37 5.372-1 9h-2c.557-3.344 1.352-6.033 3-9"/><path fill="#DC675D" d="M266 358h1v5l-3 1v3h-2c1.199-3.083 2.477-6.063 4-9"/></svg>